<svg width="160" height="160" viewBox="0 0 160 160" fill="none" xmlns="http://www.w3.org/2000/svg">
  <ellipse cx="80" cy="118" rx="45" ry="16" fill="#2A211B" opacity=".14"/>
  <path d="M48 62 38 28l29 19c4-1 8-2 13-2s9 1 13 2l29-19-10 34c10 10 16 24 16 39 0 31-22 50-48 50s-48-19-48-50c0-15 6-29 16-39Z" fill="#F4B16B"/>
  <path d="m48 62-6-21 19 13c-5 2-9 5-13 8Zm64 0 6-21-19 13c5 2 9 5 13 8Z" fill="#C76D4A"/>
  <path d="M44 92c0-23 16-38 36-38s36 15 36 38-16 41-36 41-36-18-36-41Z" fill="#FFD29A"/>
  <path d="M67 89c0 5-3 9-7 9s-7-4-7-9 3-9 7-9 7 4 7 9Zm40 0c0 5-3 9-7 9s-7-4-7-9 3-9 7-9 7 4 7 9Z" fill="#2A211B"/>
  <path d="M63 86c0 2-1 3-3 3s-3-1-3-3 1-3 3-3 3 1 3 3Zm40 0c0 2-1 3-3 3s-3-1-3-3 1-3 3-3 3 1 3 3Z" fill="#FFF8ED"/>
  <path d="M80 101c5 0 9 2 9 5 0 4-4 7-9 7s-9-3-9-7c0-3 4-5 9-5Z" fill="#8E4C3E"/>
  <path d="M80 112v7m0 0c-6 0-10-3-13-7m13 7c6 0 10-3 13-7" stroke="#8E4C3E" stroke-width="4" stroke-linecap="round"/>
  <path d="M42 105H16m29 13-24 9m94-22h29m-32 13 25 9" stroke="#8E4C3E" stroke-width="4" stroke-linecap="round"/>
  <path d="M54 126c-8 11-5 22 9 22h34c14 0 17-11 9-22-7 5-16 8-26 8s-19-3-26-8Z" fill="#F4B16B"/>
</svg>
