<svg width="96" height="96" viewBox="0 0 24 24" xmlns="http://www.w3.org/2000/svg" shape-rendering="crispEdges">
  <rect width="24" height="24" fill="none"/>

  <path fill="#2b2117" d="M5 4h2v1h1v3H7V6H5v2H4V5h1V4Zm6 0h2v1h1v3h-1V6h-2v2h-1V5h1V4Zm-7 5h1v8h1v2h8v-1h2v-2h2v2h1v-3h-1v-2h1v-2h2v1h1v4h-1v2h-1v2h-5v1H6v-1H4v-2H3v-8h1V9Zm14 1h2v1h-2v-1Z"/>

  <path fill="#f7b35a" d="M6 5h1v2H6V5Zm6 0h1v2h-1V5ZM5 8h9v10H6v-2H5V8Zm10 6h2v3h-2v-3Zm3-2h2v3h-2v-3Zm-2-2h2v2h-2v-2Z"/>

  <path fill="#ffd27a" d="M6 8h6v2H6V8Zm0 3h7v4H6v-4Zm1 5h5v1H7v-1Z"/>

  <path fill="#c76b25" d="M7 8h1v2H7V8Zm4 0h1v2h-1V8Zm5 3h1v1h-1v-1Zm2 2h1v1h-1v-1Zm-2 2h1v1h-1v-1Zm-8 2h1v1H8v-1Zm3 0h1v1h-1v-1Z"/>

  <path fill="#2b2117" d="M7 11h1v1H7v-1Zm4 0h1v1h-1v-1Zm-2 2h1v1H9v-1Z"/>
</svg>
